<svg width="524" height="215" viewBox="0 0 524 215" fill="none" xmlns="http://www.w3.org/2000/svg">
<rect width="524" height="215" fill="white"/>
<path d="M22 43H502V179C502 187.837 494.837 195 486 195H38C29.1635 195 22 187.837 22 179V43Z" fill="#F2F2F2"/>
<g opacity="0.5">
<rect x="22" y="43" width="480" height="1" rx="0.5" fill="#C7C7C7"/>
</g>
<path d="M46 100C46 82.3269 60.3269 68 78 68H446C463.673 68 478 82.3269 478 100V100C478 117.673 463.673 132 446 132H78C60.3269 132 46 117.673 46 100V100Z" fill="white"/>
<path d="M75.04 106.176C74.1653 106.176 73.3547 106.021 72.608 105.712C71.8613 105.392 71.1413 104.912 70.448 104.272L71.2 103.376C71.872 104.005 72.5013 104.453 73.088 104.72C73.6853 104.987 74.3467 105.12 75.072 105.12C75.648 105.12 76.16 105.024 76.608 104.832C77.0667 104.629 77.424 104.357 77.68 104.016C77.936 103.675 78.064 103.285 78.064 102.848C78.064 102.283 77.8773 101.856 77.504 101.568C77.1307 101.269 76.4853 101.04 75.568 100.88L73.76 100.576C72.736 100.395 71.984 100.085 71.504 99.648C71.0347 99.2 70.8 98.6027 70.8 97.856C70.8 97.2267 70.96 96.672 71.28 96.192C71.6107 95.7013 72.064 95.3173 72.64 95.04C73.216 94.7627 73.8827 94.624 74.64 94.624C75.472 94.624 76.2453 94.7413 76.96 94.976C77.6747 95.2 78.3787 95.5573 79.072 96.048L78.432 97.008C77.856 96.5707 77.248 96.24 76.608 96.016C75.968 95.7813 75.3173 95.664 74.656 95.664C74.1333 95.664 73.6693 95.7547 73.264 95.936C72.8693 96.1173 72.5547 96.3627 72.32 96.672C72.096 96.9813 71.984 97.3333 71.984 97.728C71.984 98.2187 72.1493 98.6027 72.48 98.88C72.8107 99.1573 73.3493 99.3547 74.096 99.472L75.888 99.776C77.0827 99.9893 77.9467 100.336 78.48 100.816C79.024 101.285 79.296 101.941 79.296 102.784C79.296 103.435 79.1093 104.016 78.736 104.528C78.3733 105.04 77.872 105.445 77.232 105.744C76.592 106.032 75.8613 106.176 75.04 106.176ZM84.845 106.16C84.1197 106.16 83.4637 105.984 82.877 105.632C82.2903 105.269 81.8263 104.784 81.485 104.176C81.1437 103.557 80.973 102.864 80.973 102.096C80.973 101.328 81.133 100.64 81.453 100.032C81.7837 99.424 82.2263 98.944 82.781 98.592C83.3357 98.24 83.9543 98.064 84.637 98.064C85.3303 98.064 85.9437 98.24 86.477 98.592C87.021 98.9333 87.4477 99.4027 87.757 100C88.077 100.587 88.237 101.253 88.237 102V102.352H82.109C82.1517 102.885 82.2957 103.365 82.541 103.792C82.797 104.208 83.1277 104.539 83.533 104.784C83.949 105.019 84.4023 105.136 84.893 105.136C85.2983 105.136 85.6877 105.067 86.061 104.928C86.445 104.779 86.7703 104.581 87.037 104.336L87.773 105.12C87.325 105.472 86.861 105.733 86.381 105.904C85.901 106.075 85.389 106.16 84.845 106.16ZM82.141 101.52H87.085C87.0317 101.051 86.8877 100.635 86.653 100.272C86.429 99.8987 86.141 99.6053 85.789 99.392C85.4477 99.1787 85.0637 99.072 84.637 99.072C84.2103 99.072 83.821 99.1787 83.469 99.392C83.117 99.5947 82.8237 99.8827 82.589 100.256C82.365 100.619 82.2157 101.04 82.141 101.52ZM90.2313 106V98.192H91.3993V99.456C91.6979 98.9867 92.0553 98.64 92.4713 98.416C92.8873 98.1813 93.3566 98.064 93.8793 98.064C94.4446 98.064 94.9353 98.1867 95.3513 98.432C95.7779 98.6667 96.1086 99.0027 96.3433 99.44C96.5886 99.8667 96.7113 100.368 96.7113 100.944V106H95.5433V101.28C95.5433 100.587 95.3513 100.043 94.9673 99.648C94.5939 99.2427 94.0873 99.04 93.4473 99.04C93.0206 99.04 92.6313 99.1413 92.2793 99.344C91.9273 99.5467 91.6339 99.8453 91.3993 100.24V106H90.2313ZM102.307 106.112C101.635 106.112 101.027 105.936 100.483 105.584C99.9394 105.221 99.5074 104.741 99.1874 104.144C98.8674 103.536 98.7074 102.859 98.7074 102.112C98.7074 101.355 98.8674 100.677 99.1874 100.08C99.518 99.472 99.9607 98.992 100.515 98.64C101.07 98.2773 101.689 98.096 102.371 98.096C102.851 98.096 103.299 98.192 103.715 98.384C104.131 98.5653 104.494 98.832 104.803 99.184V94.448L105.971 94.208V106H104.803V104.96C104.505 105.333 104.142 105.621 103.715 105.824C103.289 106.016 102.819 106.112 102.307 106.112ZM102.595 105.088C103.054 105.088 103.475 104.997 103.859 104.816C104.243 104.635 104.558 104.379 104.803 104.048V100.176C104.547 99.8453 104.222 99.5893 103.827 99.408C103.443 99.216 103.033 99.12 102.595 99.12C102.073 99.12 101.603 99.248 101.187 99.504C100.782 99.76 100.457 100.112 100.211 100.56C99.9767 101.008 99.8594 101.52 99.8594 102.096C99.8594 102.661 99.9767 103.173 100.211 103.632C100.457 104.08 100.782 104.437 101.187 104.704C101.603 104.96 102.073 105.088 102.595 105.088ZM114.522 106.144C113.968 106.144 113.477 106.043 113.05 105.84C112.624 105.637 112.288 105.36 112.042 105.008C111.808 104.645 111.69 104.229 111.69 103.76C111.69 103.291 111.813 102.885 112.058 102.544C112.304 102.192 112.645 101.92 113.082 101.728C113.52 101.536 114.032 101.44 114.618 101.44C115.066 101.44 115.488 101.488 115.882 101.584C116.288 101.68 116.661 101.835 117.002 102.048V100.976C117.002 100.336 116.832 99.856 116.49 99.536C116.149 99.2053 115.648 99.04 114.986 99.04C114.624 99.04 114.25 99.0933 113.866 99.2C113.493 99.3067 113.077 99.4773 112.618 99.712L112.186 98.816C113.232 98.3147 114.213 98.064 115.13 98.064C116.101 98.064 116.848 98.304 117.37 98.784C117.893 99.2533 118.154 99.9307 118.154 100.816V106H117.002V105.088C116.661 105.44 116.282 105.707 115.866 105.888C115.45 106.059 115.002 106.144 114.522 106.144ZM112.81 103.728C112.81 104.187 112.986 104.555 113.338 104.832C113.701 105.109 114.176 105.248 114.762 105.248C115.2 105.248 115.6 105.173 115.962 105.024C116.336 104.875 116.682 104.651 117.002 104.352V102.848C116.672 102.656 116.33 102.517 115.978 102.432C115.626 102.336 115.232 102.288 114.794 102.288C114.197 102.288 113.717 102.421 113.354 102.688C112.992 102.944 112.81 103.291 112.81 103.728ZM124.263 106V98.192H125.431V99.408C125.729 98.96 126.071 98.624 126.455 98.4C126.839 98.176 127.271 98.064 127.751 98.064C128.305 98.064 128.791 98.2027 129.207 98.48C129.623 98.7467 129.937 99.1147 130.151 99.584C130.46 99.0827 130.828 98.704 131.255 98.448C131.692 98.192 132.193 98.064 132.759 98.064C133.281 98.064 133.74 98.1867 134.135 98.432C134.54 98.6773 134.855 99.0187 135.079 99.456C135.303 99.8827 135.415 100.384 135.415 100.96V106H134.247V101.248C134.247 100.565 134.076 100.027 133.735 99.632C133.393 99.2373 132.924 99.04 132.327 99.04C131.921 99.04 131.553 99.1413 131.223 99.344C130.903 99.5467 130.62 99.856 130.375 100.272C130.396 100.379 130.412 100.491 130.423 100.608C130.433 100.725 130.439 100.843 130.439 100.96V106H129.271V101.248C129.271 100.565 129.095 100.027 128.743 99.632C128.401 99.2373 127.932 99.04 127.335 99.04C126.535 99.04 125.9 99.424 125.431 100.192V106H124.263ZM141.298 106.16C140.573 106.16 139.917 105.984 139.33 105.632C138.743 105.269 138.279 104.784 137.938 104.176C137.597 103.557 137.426 102.864 137.426 102.096C137.426 101.328 137.586 100.64 137.906 100.032C138.237 99.424 138.679 98.944 139.234 98.592C139.789 98.24 140.407 98.064 141.09 98.064C141.783 98.064 142.397 98.24 142.93 98.592C143.474 98.9333 143.901 99.4027 144.21 100C144.53 100.587 144.69 101.253 144.69 102V102.352H138.562C138.605 102.885 138.749 103.365 138.994 103.792C139.25 104.208 139.581 104.539 139.986 104.784C140.402 105.019 140.855 105.136 141.346 105.136C141.751 105.136 142.141 105.067 142.514 104.928C142.898 104.779 143.223 104.581 143.49 104.336L144.226 105.12C143.778 105.472 143.314 105.733 142.834 105.904C142.354 106.075 141.842 106.16 141.298 106.16ZM138.594 101.52H143.538C143.485 101.051 143.341 100.635 143.106 100.272C142.882 99.8987 142.594 99.6053 142.242 99.392C141.901 99.1787 141.517 99.072 141.09 99.072C140.663 99.072 140.274 99.1787 139.922 99.392C139.57 99.5947 139.277 99.8827 139.042 100.256C138.818 100.619 138.669 101.04 138.594 101.52ZM149.179 106.16C148.539 106.16 147.947 106.064 147.403 105.872C146.859 105.669 146.395 105.381 146.011 105.008L146.635 104.24C147.104 104.581 147.536 104.832 147.931 104.992C148.325 105.141 148.731 105.216 149.147 105.216C149.712 105.216 150.181 105.083 150.555 104.816C150.928 104.549 151.115 104.208 151.115 103.792C151.115 103.472 151.003 103.221 150.779 103.04C150.565 102.859 150.208 102.72 149.707 102.624L148.427 102.4C147.669 102.261 147.109 102.027 146.747 101.696C146.395 101.365 146.219 100.917 146.219 100.352C146.219 99.904 146.336 99.5093 146.571 99.168C146.816 98.8267 147.152 98.56 147.579 98.368C148.005 98.1653 148.491 98.064 149.035 98.064C149.568 98.064 150.075 98.144 150.555 98.304C151.035 98.4533 151.52 98.6987 152.011 99.04L151.435 99.856C151.029 99.568 150.624 99.36 150.219 99.232C149.813 99.0933 149.403 99.024 148.987 99.024C148.475 99.024 148.064 99.136 147.755 99.36C147.445 99.584 147.291 99.888 147.291 100.272C147.291 100.592 147.387 100.837 147.579 101.008C147.781 101.179 148.133 101.307 148.635 101.392L149.947 101.632C150.736 101.771 151.312 102.011 151.675 102.352C152.037 102.693 152.219 103.152 152.219 103.728C152.219 104.187 152.085 104.603 151.819 104.976C151.552 105.339 151.189 105.627 150.731 105.84C150.272 106.053 149.755 106.16 149.179 106.16ZM156.413 106.16C155.773 106.16 155.181 106.064 154.637 105.872C154.093 105.669 153.629 105.381 153.245 105.008L153.869 104.24C154.338 104.581 154.77 104.832 155.165 104.992C155.56 105.141 155.965 105.216 156.381 105.216C156.946 105.216 157.416 105.083 157.789 104.816C158.162 104.549 158.349 104.208 158.349 103.792C158.349 103.472 158.237 103.221 158.013 103.04C157.8 102.859 157.442 102.72 156.941 102.624L155.661 102.4C154.904 102.261 154.344 102.027 153.981 101.696C153.629 101.365 153.453 100.917 153.453 100.352C153.453 99.904 153.57 99.5093 153.805 99.168C154.05 98.8267 154.386 98.56 154.813 98.368C155.24 98.1653 155.725 98.064 156.269 98.064C156.802 98.064 157.309 98.144 157.789 98.304C158.269 98.4533 158.754 98.6987 159.245 99.04L158.669 99.856C158.264 99.568 157.858 99.36 157.453 99.232C157.048 99.0933 156.637 99.024 156.221 99.024C155.709 99.024 155.298 99.136 154.989 99.36C154.68 99.584 154.525 99.888 154.525 100.272C154.525 100.592 154.621 100.837 154.813 101.008C155.016 101.179 155.368 101.307 155.869 101.392L157.181 101.632C157.97 101.771 158.546 102.011 158.909 102.352C159.272 102.693 159.453 103.152 159.453 103.728C159.453 104.187 159.32 104.603 159.053 104.976C158.786 105.339 158.424 105.627 157.965 105.84C157.506 106.053 156.989 106.16 156.413 106.16ZM163.725 106.144C163.171 106.144 162.68 106.043 162.253 105.84C161.827 105.637 161.491 105.36 161.245 105.008C161.011 104.645 160.893 104.229 160.893 103.76C160.893 103.291 161.016 102.885 161.261 102.544C161.507 102.192 161.848 101.92 162.285 101.728C162.723 101.536 163.235 101.44 163.821 101.44C164.269 101.44 164.691 101.488 165.085 101.584C165.491 101.68 165.864 101.835 166.205 102.048V100.976C166.205 100.336 166.035 99.856 165.693 99.536C165.352 99.2053 164.851 99.04 164.189 99.04C163.827 99.04 163.453 99.0933 163.069 99.2C162.696 99.3067 162.28 99.4773 161.821 99.712L161.389 98.816C162.435 98.3147 163.416 98.064 164.333 98.064C165.304 98.064 166.051 98.304 166.573 98.784C167.096 99.2533 167.357 99.9307 167.357 100.816V106H166.205V105.088C165.864 105.44 165.485 105.707 165.069 105.888C164.653 106.059 164.205 106.144 163.725 106.144ZM162.013 103.728C162.013 104.187 162.189 104.555 162.541 104.832C162.904 105.109 163.379 105.248 163.965 105.248C164.403 105.248 164.803 105.173 165.165 105.024C165.539 104.875 165.885 104.651 166.205 104.352V102.848C165.875 102.656 165.533 102.517 165.181 102.432C164.829 102.336 164.435 102.288 163.997 102.288C163.4 102.288 162.92 102.421 162.557 102.688C162.195 102.944 162.013 103.291 162.013 103.728ZM173.347 109.504C172.825 109.504 172.297 109.429 171.763 109.28C171.241 109.141 170.755 108.944 170.307 108.688L170.803 107.792C171.283 108.037 171.721 108.219 172.115 108.336C172.51 108.453 172.905 108.512 173.299 108.512C174.014 108.512 174.553 108.341 174.915 108C175.289 107.659 175.475 107.163 175.475 106.512V104.944C175.177 105.317 174.814 105.605 174.387 105.808C173.961 106 173.491 106.096 172.979 106.096C172.307 106.096 171.699 105.92 171.155 105.568C170.611 105.205 170.179 104.725 169.859 104.128C169.539 103.52 169.379 102.843 169.379 102.096C169.379 101.349 169.539 100.677 169.859 100.08C170.19 99.472 170.633 98.992 171.187 98.64C171.742 98.2773 172.361 98.096 173.043 98.096C173.534 98.096 173.987 98.192 174.403 98.384C174.819 98.5653 175.182 98.8373 175.491 99.2V98.192H176.643V106.496C176.643 107.467 176.361 108.208 175.795 108.72C175.23 109.243 174.414 109.504 173.347 109.504ZM173.267 105.088C173.726 105.088 174.147 104.997 174.531 104.816C174.915 104.624 175.23 104.363 175.475 104.032V100.176C175.219 99.8453 174.894 99.5893 174.499 99.408C174.115 99.216 173.705 99.12 173.267 99.12C172.745 99.12 172.275 99.248 171.859 99.504C171.454 99.76 171.129 100.112 170.883 100.56C170.649 101.008 170.531 101.52 170.531 102.096C170.531 102.661 170.649 103.173 170.883 103.632C171.129 104.08 171.454 104.437 171.859 104.704C172.275 104.96 172.745 105.088 173.267 105.088ZM182.564 106.16C181.838 106.16 181.182 105.984 180.596 105.632C180.009 105.269 179.545 104.784 179.204 104.176C178.862 103.557 178.692 102.864 178.692 102.096C178.692 101.328 178.852 100.64 179.172 100.032C179.502 99.424 179.945 98.944 180.5 98.592C181.054 98.24 181.673 98.064 182.356 98.064C183.049 98.064 183.662 98.24 184.196 98.592C184.74 98.9333 185.166 99.4027 185.476 100C185.796 100.587 185.956 101.253 185.956 102V102.352H179.828C179.87 102.885 180.014 103.365 180.26 103.792C180.516 104.208 180.846 104.539 181.252 104.784C181.668 105.019 182.121 105.136 182.612 105.136C183.017 105.136 183.406 105.067 183.78 104.928C184.164 104.779 184.489 104.581 184.756 104.336L185.492 105.12C185.044 105.472 184.58 105.733 184.1 105.904C183.62 106.075 183.108 106.16 182.564 106.16ZM179.86 101.52H184.804C184.75 101.051 184.606 100.635 184.372 100.272C184.148 99.8987 183.86 99.6053 183.508 99.392C183.166 99.1787 182.782 99.072 182.356 99.072C181.929 99.072 181.54 99.1787 181.188 99.392C180.836 99.5947 180.542 99.8827 180.308 100.256C180.084 100.619 179.934 101.04 179.86 101.52ZM188.344 106.128C188.109 106.128 187.906 106.043 187.736 105.872C187.576 105.701 187.496 105.499 187.496 105.264C187.496 105.019 187.576 104.816 187.736 104.656C187.906 104.485 188.109 104.4 188.344 104.4C188.578 104.4 188.776 104.485 188.936 104.656C189.106 104.816 189.192 105.019 189.192 105.264C189.192 105.499 189.106 105.701 188.936 105.872C188.776 106.043 188.578 106.128 188.344 106.128ZM192.344 106.128C192.109 106.128 191.906 106.043 191.736 105.872C191.576 105.701 191.496 105.499 191.496 105.264C191.496 105.019 191.576 104.816 191.736 104.656C191.906 104.485 192.109 104.4 192.344 104.4C192.578 104.4 192.776 104.485 192.936 104.656C193.106 104.816 193.192 105.019 193.192 105.264C193.192 105.499 193.106 105.701 192.936 105.872C192.776 106.043 192.578 106.128 192.344 106.128ZM196.344 106.128C196.109 106.128 195.906 106.043 195.736 105.872C195.576 105.701 195.496 105.499 195.496 105.264C195.496 105.019 195.576 104.816 195.736 104.656C195.906 104.485 196.109 104.4 196.344 104.4C196.578 104.4 196.776 104.485 196.936 104.656C197.106 104.816 197.192 105.019 197.192 105.264C197.192 105.499 197.106 105.701 196.936 105.872C196.776 106.043 196.578 106.128 196.344 106.128Z" fill="#4D4D4D"/>
<path d="M323.063 92.9033C322.109 91.9502 320.563 91.9502 319.609 92.9033L312.422 100.091C310.777 101.735 310.777 104.399 312.422 106.044C314.066 107.688 316.73 107.688 318.375 106.044L324.313 100.106C324.738 99.6807 325.434 99.6807 325.859 100.106C326.285 100.532 326.285 101.228 325.859 101.653L319.922 107.591C317.422 110.091 313.375 110.091 310.875 107.591C308.375 105.091 308.375 101.044 310.875 98.5439L318.063 91.3564C319.871 89.5479 322.801 89.5479 324.609 91.3564C326.418 93.165 326.418 96.0947 324.609 97.9033L317.734 104.778C316.617 105.896 314.805 105.896 313.688 104.778C312.57 103.661 312.57 101.849 313.688 100.731L319.313 95.1064C319.738 94.6807 320.434 94.6807 320.859 95.1064C321.285 95.5322 321.285 96.2275 320.859 96.6533L315.234 102.278C314.973 102.54 314.973 102.97 315.234 103.231C315.496 103.493 315.926 103.493 316.188 103.231L323.063 96.3564C324.016 95.4033 324.016 93.8564 323.063 92.9033Z" fill="#1F1F1F"/>
<path d="M382 90C379.93 90 378.25 91.6797 378.25 93.75V100C378.25 102.07 379.93 103.75 382 103.75C384.07 103.75 385.75 102.07 385.75 100V93.75C385.75 91.6797 384.07 90 382 90ZM377 98.4375C377 97.918 376.582 97.5 376.062 97.5C375.543 97.5 375.125 97.918 375.125 98.4375V100C375.125 103.48 377.711 106.355 381.062 106.812V108.125H379.188C378.668 108.125 378.25 108.543 378.25 109.062C378.25 109.582 378.668 110 379.188 110H382H384.812C385.332 110 385.75 109.582 385.75 109.062C385.75 108.543 385.332 108.125 384.812 108.125H382.938V106.812C386.289 106.355 388.875 103.48 388.875 100V98.4375C388.875 97.918 388.457 97.5 387.938 97.5C387.418 97.5 387 97.918 387 98.4375V100C387 102.762 384.762 105 382 105C379.238 105 377 102.762 377 100V98.4375Z" fill="#1F1F1F"/>
<path d="M455.458 90.2168C455.852 90.4903 456.059 90.9629 455.985 91.4356L453.485 107.686C453.426 108.064 453.196 108.397 452.86 108.584C452.524 108.772 452.122 108.795 451.766 108.647L447.094 106.705L444.419 109.6C444.071 109.979 443.524 110.104 443.044 109.916C442.563 109.729 442.251 109.264 442.251 108.748V105.482C442.251 105.326 442.309 105.178 442.415 105.064L448.962 97.9199C449.188 97.6739 449.18 97.2949 448.946 97.0606C448.712 96.8262 448.333 96.8106 448.087 97.0332L440.141 104.092L436.692 102.365C436.278 102.158 436.012 101.744 436.001 101.283C435.989 100.822 436.231 100.393 436.629 100.162L454.129 90.1621C454.547 89.9239 455.063 89.9473 455.458 90.2168Z" fill="#0066CC"/>
<path d="M143.068 167.5V159.1H143.992V166.684H148.732V167.5H143.068ZM150.177 167.5V161.644H151.053V167.5H150.177ZM150.621 160.192C150.445 160.192 150.293 160.132 150.165 160.012C150.045 159.884 149.985 159.736 149.985 159.568C149.985 159.4 150.045 159.256 150.165 159.136C150.293 159.008 150.445 158.944 150.621 158.944C150.797 158.944 150.945 159.008 151.065 159.136C151.193 159.256 151.257 159.4 151.257 159.568C151.257 159.736 151.193 159.884 151.065 160.012C150.945 160.132 150.797 160.192 150.621 160.192ZM155.561 170.128C155.169 170.128 154.773 170.072 154.373 169.96C153.981 169.856 153.617 169.708 153.281 169.516L153.653 168.844C154.013 169.028 154.341 169.164 154.637 169.252C154.933 169.34 155.229 169.384 155.525 169.384C156.061 169.384 156.465 169.256 156.737 169C157.017 168.744 157.157 168.372 157.157 167.884V166.708C156.933 166.988 156.661 167.204 156.341 167.356C156.021 167.5 155.669 167.572 155.285 167.572C154.781 167.572 154.325 167.44 153.917 167.176C153.509 166.904 153.185 166.544 152.945 166.096C152.705 165.64 152.585 165.132 152.585 164.572C152.585 164.012 152.705 163.508 152.945 163.06C153.193 162.604 153.525 162.244 153.941 161.98C154.357 161.708 154.821 161.572 155.333 161.572C155.701 161.572 156.041 161.644 156.353 161.788C156.665 161.924 156.937 162.128 157.169 162.4V161.644H158.033V167.872C158.033 168.6 157.821 169.156 157.397 169.54C156.973 169.932 156.361 170.128 155.561 170.128ZM155.501 166.816C155.845 166.816 156.161 166.748 156.449 166.612C156.737 166.468 156.973 166.272 157.157 166.024V163.132C156.965 162.884 156.721 162.692 156.425 162.556C156.137 162.412 155.829 162.34 155.501 162.34C155.109 162.34 154.757 162.436 154.445 162.628C154.141 162.82 153.897 163.084 153.713 163.42C153.537 163.756 153.449 164.14 153.449 164.572C153.449 164.996 153.537 165.38 153.713 165.724C153.897 166.06 154.141 166.328 154.445 166.528C154.757 166.72 155.109 166.816 155.501 166.816ZM159.834 167.5V158.836L160.71 158.656V162.592C160.934 162.24 161.202 161.98 161.514 161.812C161.826 161.636 162.178 161.548 162.57 161.548C162.994 161.548 163.362 161.64 163.674 161.824C163.994 162 164.242 162.252 164.418 162.58C164.602 162.9 164.694 163.276 164.694 163.708V167.5H163.818V163.96C163.818 163.44 163.674 163.032 163.386 162.736C163.106 162.432 162.726 162.28 162.246 162.28C161.926 162.28 161.634 162.356 161.37 162.508C161.106 162.66 160.886 162.884 160.71 163.18V167.5H159.834ZM168.511 167.62C168.007 167.62 167.623 167.5 167.359 167.26C167.103 167.012 166.975 166.656 166.975 166.192V162.364H165.763V161.644H166.975V160.036L167.851 159.832V161.644H169.531V162.364H167.851V165.964C167.851 166.276 167.915 166.5 168.043 166.636C168.179 166.772 168.399 166.84 168.703 166.84C168.855 166.84 168.991 166.828 169.111 166.804C169.231 166.78 169.371 166.74 169.531 166.684V167.464C169.371 167.52 169.203 167.56 169.027 167.584C168.851 167.608 168.679 167.62 168.511 167.62ZM172.743 167.62C172.263 167.62 171.819 167.548 171.411 167.404C171.003 167.252 170.655 167.036 170.367 166.756L170.835 166.18C171.187 166.436 171.511 166.624 171.807 166.744C172.103 166.856 172.407 166.912 172.719 166.912C173.143 166.912 173.495 166.812 173.775 166.612C174.055 166.412 174.195 166.156 174.195 165.844C174.195 165.604 174.111 165.416 173.943 165.28C173.783 165.144 173.515 165.04 173.139 164.968L172.179 164.8C171.611 164.696 171.191 164.52 170.919 164.272C170.655 164.024 170.523 163.688 170.523 163.264C170.523 162.928 170.611 162.632 170.787 162.376C170.971 162.12 171.223 161.92 171.543 161.776C171.863 161.624 172.227 161.548 172.635 161.548C173.035 161.548 173.415 161.608 173.775 161.728C174.135 161.84 174.499 162.024 174.867 162.28L174.435 162.892C174.131 162.676 173.827 162.52 173.523 162.424C173.219 162.32 172.911 162.268 172.599 162.268C172.215 162.268 171.907 162.352 171.675 162.52C171.443 162.688 171.327 162.916 171.327 163.204C171.327 163.444 171.399 163.628 171.543 163.756C171.695 163.884 171.959 163.98 172.335 164.044L173.319 164.224C173.911 164.328 174.343 164.508 174.615 164.764C174.887 165.02 175.023 165.364 175.023 165.796C175.023 166.14 174.923 166.452 174.723 166.732C174.523 167.004 174.251 167.22 173.907 167.38C173.563 167.54 173.175 167.62 172.743 167.62ZM176.357 170.008V161.644H177.221V162.484C177.445 162.188 177.717 161.964 178.037 161.812C178.365 161.652 178.725 161.572 179.117 161.572C179.629 161.572 180.085 161.708 180.485 161.98C180.893 162.244 181.217 162.604 181.457 163.06C181.697 163.508 181.817 164.012 181.817 164.572C181.817 165.132 181.693 165.64 181.445 166.096C181.205 166.552 180.877 166.916 180.461 167.188C180.053 167.452 179.589 167.584 179.069 167.584C178.701 167.584 178.361 167.516 178.049 167.38C177.737 167.236 177.465 167.032 177.233 166.768V170.008H176.357ZM178.901 166.828C179.293 166.828 179.641 166.732 179.945 166.54C180.257 166.34 180.501 166.072 180.677 165.736C180.861 165.392 180.953 165.008 180.953 164.584C180.953 164.152 180.861 163.768 180.677 163.432C180.501 163.096 180.257 162.832 179.945 162.64C179.641 162.44 179.293 162.34 178.901 162.34C178.557 162.34 178.237 162.412 177.941 162.556C177.653 162.692 177.417 162.888 177.233 163.144V166.012C177.425 166.268 177.665 166.468 177.953 166.612C178.249 166.756 178.565 166.828 178.901 166.828ZM185.993 167.62C185.449 167.62 184.957 167.488 184.517 167.224C184.077 166.952 183.729 166.588 183.473 166.132C183.217 165.668 183.089 165.148 183.089 164.572C183.089 163.996 183.209 163.48 183.449 163.024C183.697 162.568 184.029 162.208 184.445 161.944C184.861 161.68 185.325 161.548 185.837 161.548C186.357 161.548 186.817 161.68 187.217 161.944C187.625 162.2 187.945 162.552 188.177 163C188.417 163.44 188.537 163.94 188.537 164.5V164.764H183.941C183.973 165.164 184.081 165.524 184.265 165.844C184.457 166.156 184.705 166.404 185.009 166.588C185.321 166.764 185.661 166.852 186.029 166.852C186.333 166.852 186.625 166.8 186.905 166.696C187.193 166.584 187.437 166.436 187.637 166.252L188.189 166.84C187.853 167.104 187.505 167.3 187.145 167.428C186.785 167.556 186.401 167.62 185.993 167.62ZM183.965 164.14H187.673C187.633 163.788 187.525 163.476 187.349 163.204C187.181 162.924 186.965 162.704 186.701 162.544C186.445 162.384 186.157 162.304 185.837 162.304C185.517 162.304 185.225 162.384 184.961 162.544C184.697 162.696 184.477 162.912 184.301 163.192C184.133 163.464 184.021 163.78 183.965 164.14ZM192.673 167.62C192.129 167.62 191.637 167.488 191.197 167.224C190.757 166.952 190.409 166.588 190.153 166.132C189.897 165.668 189.769 165.148 189.769 164.572C189.769 163.996 189.889 163.48 190.129 163.024C190.377 162.568 190.709 162.208 191.125 161.944C191.541 161.68 192.005 161.548 192.517 161.548C193.037 161.548 193.497 161.68 193.897 161.944C194.305 162.2 194.625 162.552 194.857 163C195.097 163.44 195.217 163.94 195.217 164.5V164.764H190.621C190.653 165.164 190.761 165.524 190.945 165.844C191.137 166.156 191.385 166.404 191.689 166.588C192.001 166.764 192.341 166.852 192.709 166.852C193.013 166.852 193.305 166.8 193.585 166.696C193.873 166.584 194.117 166.436 194.317 166.252L194.869 166.84C194.533 167.104 194.185 167.3 193.825 167.428C193.465 167.556 193.081 167.62 192.673 167.62ZM190.645 164.14H194.353C194.313 163.788 194.205 163.476 194.029 163.204C193.861 162.924 193.645 162.704 193.381 162.544C193.125 162.384 192.837 162.304 192.517 162.304C192.197 162.304 191.905 162.384 191.641 162.544C191.377 162.696 191.157 162.912 190.981 163.192C190.813 163.464 190.701 163.78 190.645 164.14ZM199.149 167.584C198.645 167.584 198.189 167.452 197.781 167.188C197.373 166.916 197.049 166.556 196.809 166.108C196.569 165.652 196.449 165.144 196.449 164.584C196.449 164.016 196.569 163.508 196.809 163.06C197.057 162.604 197.389 162.244 197.805 161.98C198.221 161.708 198.685 161.572 199.197 161.572C199.557 161.572 199.893 161.644 200.205 161.788C200.517 161.924 200.789 162.124 201.021 162.388V158.836L201.897 158.656V167.5H201.021V166.72C200.797 167 200.525 167.216 200.205 167.368C199.885 167.512 199.533 167.584 199.149 167.584ZM199.365 166.816C199.709 166.816 200.025 166.748 200.313 166.612C200.601 166.476 200.837 166.284 201.021 166.036V163.132C200.829 162.884 200.585 162.692 200.289 162.556C200.001 162.412 199.693 162.34 199.365 162.34C198.973 162.34 198.621 162.436 198.309 162.628C198.005 162.82 197.761 163.084 197.576 163.42C197.4 163.756 197.312 164.14 197.312 164.572C197.312 164.996 197.4 165.38 197.576 165.724C197.761 166.06 198.005 166.328 198.309 166.528C198.621 166.72 198.973 166.816 199.365 166.816ZM208.586 167.596C208.17 167.596 207.802 167.504 207.482 167.32C207.162 167.136 206.91 166.88 206.726 166.552C206.55 166.224 206.462 165.848 206.462 165.424V161.644H207.35V165.172C207.35 165.692 207.49 166.104 207.77 166.408C208.05 166.712 208.43 166.864 208.91 166.864C209.238 166.864 209.53 166.788 209.786 166.636C210.05 166.484 210.27 166.264 210.446 165.976V161.644H211.322V167.5H210.446V166.552C210.222 166.896 209.954 167.156 209.642 167.332C209.338 167.508 208.986 167.596 208.586 167.596ZM214.931 167.62C214.451 167.62 214.007 167.548 213.599 167.404C213.191 167.252 212.843 167.036 212.555 166.756L213.023 166.18C213.375 166.436 213.699 166.624 213.995 166.744C214.291 166.856 214.595 166.912 214.907 166.912C215.331 166.912 215.683 166.812 215.963 166.612C216.243 166.412 216.383 166.156 216.383 165.844C216.383 165.604 216.299 165.416 216.131 165.28C215.971 165.144 215.703 165.04 215.327 164.968L214.367 164.8C213.799 164.696 213.379 164.52 213.107 164.272C212.843 164.024 212.711 163.688 212.711 163.264C212.711 162.928 212.799 162.632 212.975 162.376C213.159 162.12 213.411 161.92 213.731 161.776C214.051 161.624 214.415 161.548 214.823 161.548C215.223 161.548 215.603 161.608 215.963 161.728C216.323 161.84 216.687 162.024 217.055 162.28L216.623 162.892C216.319 162.676 216.015 162.52 215.711 162.424C215.407 162.32 215.099 162.268 214.787 162.268C214.403 162.268 214.095 162.352 213.863 162.52C213.631 162.688 213.515 162.916 213.515 163.204C213.515 163.444 213.587 163.628 213.731 163.756C213.883 163.884 214.147 163.98 214.523 164.044L215.507 164.224C216.099 164.328 216.531 164.508 216.803 164.764C217.075 165.02 217.211 165.364 217.211 165.796C217.211 166.14 217.111 166.452 216.911 166.732C216.711 167.004 216.439 167.22 216.095 167.38C215.751 167.54 215.363 167.62 214.931 167.62ZM221.243 167.62C220.699 167.62 220.207 167.488 219.767 167.224C219.327 166.952 218.979 166.588 218.723 166.132C218.467 165.668 218.339 165.148 218.339 164.572C218.339 163.996 218.459 163.48 218.699 163.024C218.947 162.568 219.279 162.208 219.695 161.944C220.111 161.68 220.575 161.548 221.087 161.548C221.607 161.548 222.067 161.68 222.467 161.944C222.875 162.2 223.195 162.552 223.427 163C223.667 163.44 223.787 163.94 223.787 164.5V164.764H219.191C219.223 165.164 219.331 165.524 219.515 165.844C219.707 166.156 219.955 166.404 220.259 166.588C220.571 166.764 220.911 166.852 221.279 166.852C221.583 166.852 221.875 166.8 222.155 166.696C222.443 166.584 222.687 166.436 222.887 166.252L223.439 166.84C223.103 167.104 222.755 167.3 222.395 167.428C222.035 167.556 221.651 167.62 221.243 167.62ZM219.215 164.14H222.923C222.883 163.788 222.775 163.476 222.599 163.204C222.431 162.924 222.215 162.704 221.951 162.544C221.695 162.384 221.407 162.304 221.087 162.304C220.767 162.304 220.475 162.384 220.211 162.544C219.947 162.696 219.727 162.912 219.551 163.192C219.383 163.464 219.271 163.78 219.215 164.14ZM227.153 167.62C226.673 167.62 226.229 167.548 225.821 167.404C225.413 167.252 225.065 167.036 224.777 166.756L225.245 166.18C225.597 166.436 225.921 166.624 226.217 166.744C226.513 166.856 226.817 166.912 227.129 166.912C227.553 166.912 227.905 166.812 228.185 166.612C228.465 166.412 228.605 166.156 228.605 165.844C228.605 165.604 228.521 165.416 228.353 165.28C228.193 165.144 227.925 165.04 227.549 164.968L226.589 164.8C226.021 164.696 225.601 164.52 225.329 164.272C225.065 164.024 224.933 163.688 224.933 163.264C224.933 162.928 225.021 162.632 225.197 162.376C225.381 162.12 225.633 161.92 225.953 161.776C226.273 161.624 226.637 161.548 227.045 161.548C227.445 161.548 227.825 161.608 228.185 161.728C228.545 161.84 228.909 162.024 229.277 162.28L228.845 162.892C228.541 162.676 228.237 162.52 227.933 162.424C227.629 162.32 227.321 162.268 227.009 162.268C226.625 162.268 226.317 162.352 226.085 162.52C225.853 162.688 225.737 162.916 225.737 163.204C225.737 163.444 225.809 163.628 225.953 163.756C226.105 163.884 226.369 163.98 226.745 164.044L227.729 164.224C228.321 164.328 228.753 164.508 229.025 164.764C229.297 165.02 229.433 165.364 229.433 165.796C229.433 166.14 229.333 166.452 229.133 166.732C228.933 167.004 228.661 167.22 228.317 167.38C227.973 167.54 227.585 167.62 227.153 167.62ZM232.776 167.5L236.1 159.1H237.204L240.48 167.5H239.484L238.488 164.86H234.744L233.748 167.5H232.776ZM235.032 164.128H238.212L236.616 159.94L235.032 164.128ZM241.646 167.5V159.1H242.57V167.5H241.646ZM245.125 167.596C244.949 167.596 244.797 167.532 244.669 167.404C244.549 167.276 244.489 167.124 244.489 166.948C244.489 166.764 244.549 166.612 244.669 166.492C244.797 166.364 244.949 166.3 245.125 166.3C245.301 166.3 245.449 166.364 245.569 166.492C245.697 166.612 245.761 166.764 245.761 166.948C245.761 167.124 245.697 167.276 245.569 167.404C245.449 167.532 245.301 167.596 245.125 167.596ZM254.37 167.632C253.77 167.632 253.21 167.524 252.69 167.308C252.178 167.084 251.726 166.776 251.334 166.384C250.942 165.984 250.638 165.524 250.422 165.004C250.206 164.476 250.098 163.908 250.098 163.3C250.098 162.692 250.206 162.128 250.422 161.608C250.638 161.08 250.942 160.62 251.334 160.228C251.726 159.828 252.178 159.52 252.69 159.304C253.21 159.08 253.77 158.968 254.37 158.968C254.786 158.968 255.182 159.024 255.558 159.136C255.942 159.24 256.302 159.396 256.638 159.604C256.974 159.804 257.274 160.052 257.538 160.348L256.926 160.984C256.614 160.608 256.23 160.32 255.774 160.12C255.326 159.912 254.858 159.808 254.37 159.808C253.898 159.808 253.458 159.896 253.05 160.072C252.642 160.248 252.286 160.496 251.982 160.816C251.686 161.136 251.454 161.508 251.286 161.932C251.118 162.348 251.034 162.804 251.034 163.3C251.034 163.788 251.118 164.244 251.286 164.668C251.454 165.092 251.686 165.464 251.982 165.784C252.286 166.104 252.642 166.352 253.05 166.528C253.458 166.704 253.898 166.792 254.37 166.792C254.858 166.792 255.326 166.688 255.774 166.48C256.23 166.272 256.614 165.984 256.926 165.616L257.538 166.252C257.274 166.548 256.974 166.8 256.638 167.008C256.302 167.208 255.942 167.364 255.558 167.476C255.182 167.58 254.786 167.632 254.37 167.632ZM259.033 167.5V158.836L259.909 158.656V162.592C260.133 162.24 260.401 161.98 260.713 161.812C261.025 161.636 261.377 161.548 261.769 161.548C262.193 161.548 262.561 161.64 262.873 161.824C263.193 162 263.441 162.252 263.617 162.58C263.801 162.9 263.893 163.276 263.893 163.708V167.5H263.017V163.96C263.017 163.44 262.873 163.032 262.585 162.736C262.305 162.432 261.925 162.28 261.445 162.28C261.125 162.28 260.833 162.356 260.569 162.508C260.305 162.66 260.085 162.884 259.909 163.18V167.5H259.033ZM268.294 167.62C267.75 167.62 267.258 167.488 266.818 167.224C266.378 166.952 266.03 166.588 265.774 166.132C265.518 165.668 265.39 165.148 265.39 164.572C265.39 163.996 265.51 163.48 265.75 163.024C265.998 162.568 266.33 162.208 266.746 161.944C267.162 161.68 267.626 161.548 268.138 161.548C268.658 161.548 269.118 161.68 269.518 161.944C269.926 162.2 270.246 162.552 270.478 163C270.718 163.44 270.838 163.94 270.838 164.5V164.764H266.242C266.274 165.164 266.382 165.524 266.566 165.844C266.758 166.156 267.006 166.404 267.31 166.588C267.622 166.764 267.962 166.852 268.33 166.852C268.634 166.852 268.926 166.8 269.206 166.696C269.494 166.584 269.738 166.436 269.938 166.252L270.49 166.84C270.154 167.104 269.806 167.3 269.446 167.428C269.086 167.556 268.702 167.62 268.294 167.62ZM266.266 164.14H269.974C269.934 163.788 269.826 163.476 269.65 163.204C269.482 162.924 269.266 162.704 269.002 162.544C268.746 162.384 268.458 162.304 268.138 162.304C267.818 162.304 267.526 162.384 267.262 162.544C266.998 162.696 266.778 162.912 266.602 163.192C266.434 163.464 266.322 163.78 266.266 164.14ZM274.962 167.596C274.418 167.596 273.926 167.464 273.486 167.2C273.054 166.928 272.71 166.564 272.454 166.108C272.198 165.644 272.07 165.132 272.07 164.572C272.07 164.004 272.198 163.492 272.454 163.036C272.71 162.58 273.054 162.22 273.486 161.956C273.926 161.684 274.418 161.548 274.962 161.548C275.394 161.548 275.806 161.628 276.198 161.788C276.59 161.948 276.93 162.172 277.218 162.46L276.654 163.072C276.446 162.84 276.194 162.66 275.898 162.532C275.602 162.404 275.302 162.34 274.998 162.34C274.614 162.34 274.266 162.44 273.954 162.64C273.65 162.84 273.406 163.108 273.222 163.444C273.038 163.78 272.946 164.156 272.946 164.572C272.946 164.988 273.038 165.364 273.222 165.7C273.406 166.036 273.65 166.304 273.954 166.504C274.266 166.704 274.614 166.804 274.998 166.804C275.302 166.804 275.602 166.74 275.898 166.612C276.194 166.476 276.446 166.296 276.654 166.072L277.218 166.684C276.93 166.972 276.59 167.196 276.198 167.356C275.806 167.516 275.394 167.596 274.962 167.596ZM278.439 167.5V158.836L279.315 158.656V164.272L282.099 161.644H283.155L280.179 164.428L283.287 167.5H282.135L279.315 164.704V167.5H278.439ZM287.855 167.5V162.364H286.547V161.644H287.855V160.42C287.855 159.844 288.007 159.4 288.311 159.088C288.615 158.776 289.047 158.62 289.607 158.62C289.767 158.62 289.911 158.628 290.039 158.644C290.175 158.66 290.295 158.688 290.399 158.728V159.52C290.271 159.48 290.155 159.452 290.051 159.436C289.947 159.42 289.827 159.412 289.691 159.412C289.355 159.412 289.111 159.496 288.959 159.664C288.807 159.824 288.731 160.08 288.731 160.432V161.644H290.399V162.364H288.731V167.5H287.855ZM293.898 167.596C293.354 167.596 292.866 167.464 292.434 167.2C292.002 166.936 291.662 166.576 291.414 166.12C291.166 165.664 291.042 165.148 291.042 164.572C291.042 163.996 291.166 163.48 291.414 163.024C291.662 162.568 292.002 162.208 292.434 161.944C292.866 161.68 293.354 161.548 293.898 161.548C294.434 161.548 294.914 161.68 295.338 161.944C295.77 162.208 296.11 162.568 296.358 163.024C296.606 163.48 296.73 163.996 296.73 164.572C296.73 165.148 296.606 165.664 296.358 166.12C296.11 166.576 295.77 166.936 295.338 167.2C294.914 167.464 294.434 167.596 293.898 167.596ZM293.886 166.828C294.27 166.828 294.61 166.732 294.906 166.54C295.202 166.34 295.434 166.068 295.602 165.724C295.778 165.38 295.866 164.996 295.866 164.572C295.866 164.14 295.778 163.756 295.602 163.42C295.434 163.076 295.202 162.808 294.906 162.616C294.61 162.416 294.27 162.316 293.886 162.316C293.502 162.316 293.162 162.416 292.866 162.616C292.57 162.808 292.334 163.076 292.158 163.42C291.99 163.756 291.906 164.14 291.906 164.572C291.906 164.996 291.99 165.38 292.158 165.724C292.334 166.068 292.57 166.34 292.866 166.54C293.162 166.732 293.502 166.828 293.886 166.828ZM298.267 167.5V161.644H299.143V162.844C299.295 162.436 299.511 162.12 299.791 161.896C300.079 161.664 300.407 161.548 300.775 161.548C300.879 161.548 300.975 161.556 301.063 161.572C301.151 161.58 301.239 161.6 301.327 161.632V162.424C301.231 162.392 301.127 162.368 301.015 162.352C300.911 162.328 300.811 162.316 300.715 162.316C300.355 162.316 300.039 162.42 299.767 162.628C299.503 162.836 299.295 163.128 299.143 163.504V167.5H298.267ZM305.287 167.5V161.644H306.163V162.556C306.387 162.22 306.643 161.968 306.931 161.8C307.219 161.632 307.543 161.548 307.903 161.548C308.319 161.548 308.683 161.652 308.995 161.86C309.307 162.06 309.543 162.336 309.703 162.688C309.935 162.312 310.211 162.028 310.531 161.836C310.859 161.644 311.235 161.548 311.659 161.548C312.051 161.548 312.395 161.64 312.691 161.824C312.995 162.008 313.231 162.264 313.399 162.592C313.567 162.912 313.651 163.288 313.651 163.72V167.5H312.775V163.936C312.775 163.424 312.647 163.02 312.391 162.724C312.135 162.428 311.783 162.28 311.335 162.28C311.031 162.28 310.755 162.356 310.507 162.508C310.267 162.66 310.055 162.892 309.871 163.204C309.887 163.284 309.899 163.368 309.907 163.456C309.915 163.544 309.919 163.632 309.919 163.72V167.5H309.043V163.936C309.043 163.424 308.911 163.02 308.647 162.724C308.391 162.428 308.039 162.28 307.591 162.28C306.991 162.28 306.515 162.568 306.163 163.144V167.5H305.287ZM315.411 167.5V161.644H316.287V167.5H315.411ZM315.855 160.192C315.679 160.192 315.527 160.132 315.399 160.012C315.279 159.884 315.219 159.736 315.219 159.568C315.219 159.4 315.279 159.256 315.399 159.136C315.527 159.008 315.679 158.944 315.855 158.944C316.031 158.944 316.179 159.008 316.299 159.136C316.427 159.256 316.491 159.4 316.491 159.568C316.491 159.736 316.427 159.884 316.299 160.012C316.179 160.132 316.031 160.192 315.855 160.192ZM319.896 167.62C319.416 167.62 318.972 167.548 318.564 167.404C318.156 167.252 317.808 167.036 317.52 166.756L317.988 166.18C318.34 166.436 318.664 166.624 318.96 166.744C319.256 166.856 319.56 166.912 319.872 166.912C320.296 166.912 320.648 166.812 320.928 166.612C321.208 166.412 321.348 166.156 321.348 165.844C321.348 165.604 321.264 165.416 321.096 165.28C320.936 165.144 320.668 165.04 320.292 164.968L319.332 164.8C318.764 164.696 318.344 164.52 318.072 164.272C317.808 164.024 317.676 163.688 317.676 163.264C317.676 162.928 317.764 162.632 317.94 162.376C318.124 162.12 318.376 161.92 318.696 161.776C319.016 161.624 319.38 161.548 319.788 161.548C320.188 161.548 320.568 161.608 320.928 161.728C321.288 161.84 321.652 162.024 322.02 162.28L321.588 162.892C321.284 162.676 320.98 162.52 320.676 162.424C320.372 162.32 320.064 162.268 319.752 162.268C319.368 162.268 319.06 162.352 318.828 162.52C318.596 162.688 318.48 162.916 318.48 163.204C318.48 163.444 318.552 163.628 318.696 163.756C318.848 163.884 319.112 163.98 319.488 164.044L320.472 164.224C321.064 164.328 321.496 164.508 321.768 164.764C322.04 165.02 322.176 165.364 322.176 165.796C322.176 166.14 322.076 166.452 321.876 166.732C321.676 167.004 321.404 167.22 321.06 167.38C320.716 167.54 320.328 167.62 319.896 167.62ZM325.624 167.62C325.12 167.62 324.736 167.5 324.472 167.26C324.216 167.012 324.088 166.656 324.088 166.192V162.364H322.876V161.644H324.088V160.036L324.964 159.832V161.644H326.644V162.364H324.964V165.964C324.964 166.276 325.028 166.5 325.156 166.636C325.292 166.772 325.512 166.84 325.816 166.84C325.968 166.84 326.104 166.828 326.224 166.804C326.344 166.78 326.484 166.74 326.644 166.684V167.464C326.484 167.52 326.316 167.56 326.14 167.584C325.964 167.608 325.792 167.62 325.624 167.62ZM329.739 167.608C329.323 167.608 328.955 167.532 328.635 167.38C328.315 167.228 328.063 167.02 327.879 166.756C327.703 166.484 327.615 166.172 327.615 165.82C327.615 165.468 327.707 165.164 327.891 164.908C328.075 164.644 328.331 164.44 328.659 164.296C328.987 164.152 329.371 164.08 329.811 164.08C330.147 164.08 330.463 164.116 330.759 164.188C331.063 164.26 331.343 164.376 331.599 164.536V163.732C331.599 163.252 331.471 162.892 331.215 162.652C330.959 162.404 330.583 162.28 330.087 162.28C329.815 162.28 329.535 162.32 329.247 162.4C328.967 162.48 328.655 162.608 328.311 162.784L327.987 162.112C328.771 161.736 329.507 161.548 330.195 161.548C330.923 161.548 331.483 161.728 331.875 162.088C332.267 162.44 332.463 162.948 332.463 163.612V167.5H331.599V166.816C331.343 167.08 331.059 167.28 330.747 167.416C330.435 167.544 330.099 167.608 329.739 167.608ZM328.455 165.796C328.455 166.14 328.587 166.416 328.851 166.624C329.123 166.832 329.479 166.936 329.919 166.936C330.247 166.936 330.547 166.88 330.819 166.768C331.099 166.656 331.359 166.488 331.599 166.264V165.136C331.351 164.992 331.095 164.888 330.831 164.824C330.567 164.752 330.271 164.716 329.943 164.716C329.495 164.716 329.135 164.816 328.863 165.016C328.591 165.208 328.455 165.468 328.455 165.796ZM334.244 167.5V158.836L335.12 158.656V164.272L337.904 161.644H338.96L335.984 164.428L339.092 167.5H337.94L335.12 164.704V167.5H334.244ZM342.274 167.62C341.73 167.62 341.238 167.488 340.798 167.224C340.358 166.952 340.01 166.588 339.754 166.132C339.498 165.668 339.37 165.148 339.37 164.572C339.37 163.996 339.49 163.48 339.73 163.024C339.978 162.568 340.31 162.208 340.726 161.944C341.142 161.68 341.606 161.548 342.118 161.548C342.638 161.548 343.098 161.68 343.498 161.944C343.906 162.2 344.226 162.552 344.458 163C344.698 163.44 344.818 163.94 344.818 164.5V164.764H340.222C340.254 165.164 340.362 165.524 340.546 165.844C340.738 166.156 340.986 166.404 341.29 166.588C341.602 166.764 341.942 166.852 342.31 166.852C342.614 166.852 342.906 166.8 343.186 166.696C343.474 166.584 343.718 166.436 343.918 166.252L344.47 166.84C344.134 167.104 343.786 167.3 343.426 167.428C343.066 167.556 342.682 167.62 342.274 167.62ZM340.246 164.14H343.954C343.914 163.788 343.806 163.476 343.63 163.204C343.462 162.924 343.246 162.704 342.982 162.544C342.726 162.384 342.438 162.304 342.118 162.304C341.798 162.304 341.506 162.384 341.242 162.544C340.978 162.696 340.758 162.912 340.582 163.192C340.414 163.464 340.302 163.78 340.246 164.14ZM348.185 167.62C347.705 167.62 347.261 167.548 346.853 167.404C346.445 167.252 346.097 167.036 345.809 166.756L346.277 166.18C346.629 166.436 346.953 166.624 347.249 166.744C347.545 166.856 347.849 166.912 348.161 166.912C348.585 166.912 348.937 166.812 349.217 166.612C349.497 166.412 349.637 166.156 349.637 165.844C349.637 165.604 349.553 165.416 349.385 165.28C349.225 165.144 348.957 165.04 348.581 164.968L347.621 164.8C347.053 164.696 346.633 164.52 346.361 164.272C346.097 164.024 345.965 163.688 345.965 163.264C345.965 162.928 346.053 162.632 346.229 162.376C346.413 162.12 346.665 161.92 346.985 161.776C347.305 161.624 347.669 161.548 348.077 161.548C348.477 161.548 348.857 161.608 349.217 161.728C349.577 161.84 349.941 162.024 350.309 162.28L349.877 162.892C349.573 162.676 349.269 162.52 348.965 162.424C348.661 162.32 348.353 162.268 348.041 162.268C347.657 162.268 347.349 162.352 347.117 162.52C346.885 162.688 346.769 162.916 346.769 163.204C346.769 163.444 346.841 163.628 346.985 163.756C347.137 163.884 347.401 163.98 347.777 164.044L348.761 164.224C349.353 164.328 349.785 164.508 350.057 164.764C350.329 165.02 350.465 165.364 350.465 165.796C350.465 166.14 350.365 166.452 350.165 166.732C349.965 167.004 349.693 167.22 349.349 167.38C349.005 167.54 348.617 167.62 348.185 167.62ZM352.281 167.596C352.105 167.596 351.953 167.532 351.825 167.404C351.705 167.276 351.645 167.124 351.645 166.948C351.645 166.764 351.705 166.612 351.825 166.492C351.953 166.364 352.105 166.3 352.281 166.3C352.457 166.3 352.605 166.364 352.725 166.492C352.853 166.612 352.917 166.764 352.917 166.948C352.917 167.124 352.853 167.276 352.725 167.404C352.605 167.532 352.457 167.596 352.281 167.596Z" fill="#0066CC"/>
<path fill-rule="evenodd" clip-rule="evenodd" d="M369.781 170.562C373.526 170.562 376.562 167.527 376.562 163.781C376.562 160.037 373.526 157 369.781 157C366.036 157 363 160.037 363 163.781C363 167.527 366.036 170.562 369.781 170.562ZM369.781 162.305C369.147 162.305 368.633 161.791 368.633 161.156C368.633 160.522 369.147 160.008 369.781 160.008C370.416 160.008 370.93 160.522 370.93 161.156C370.93 161.791 370.416 162.305 369.781 162.305ZM370.984 167.281H368.578C368.397 167.281 368.25 167.134 368.25 166.953V166.297C368.25 166.116 368.397 165.969 368.578 165.969H368.906V164.219H368.578C368.397 164.219 368.25 164.072 368.25 163.891V163.234C368.25 163.053 368.397 162.906 368.578 162.906H370.328C370.509 162.906 370.656 163.053 370.656 163.234V165.969H370.984C371.166 165.969 371.312 166.116 371.312 166.297V166.953C371.312 167.134 371.166 167.281 370.984 167.281Z" fill="#0066CC"/>
<path d="M299 24C299 21.7909 300.791 20 303 20H333C335.209 20 337 21.7909 337 24V48C337 50.2091 335.209 52 333 52H303C300.791 52 299 50.2091 299 48V24Z" fill="#C806CC"/>
<path d="M317.888 42V31.254L315.62 32.208V30.624L318.536 29.4H319.67V42H317.888Z" fill="white"/>
<path d="M318 77.3333C316.527 77.3333 315.333 78.5272 315.333 80C315.333 81.4728 316.527 82.6667 318 82.6667C319.473 82.6667 320.667 81.4728 320.667 80C320.667 78.5272 319.473 77.3333 318 77.3333ZM317.5 52L317.5 80L318.5 80L318.5 52L317.5 52Z" fill="#C806CC"/>
<path d="M363 24C363 21.7909 364.791 20 367 20H397C399.209 20 401 21.7909 401 24V48C401 50.2091 399.209 52 397 52H367C364.791 52 363 50.2091 363 48V24Z" fill="#C806CC"/>
<path d="M377.89 42V40.74L383.002 35.304C383.518 34.764 383.866 34.302 384.046 33.918C384.238 33.534 384.334 33.126 384.334 32.694C384.334 32.13 384.106 31.662 383.65 31.29C383.194 30.918 382.618 30.732 381.922 30.732C381.346 30.732 380.806 30.846 380.302 31.074C379.798 31.302 379.24 31.698 378.628 32.262L377.656 31.074C378.988 29.826 380.422 29.202 381.958 29.202C382.762 29.202 383.47 29.346 384.082 29.634C384.694 29.922 385.168 30.324 385.504 30.84C385.852 31.344 386.026 31.926 386.026 32.586C386.026 33.006 385.972 33.396 385.864 33.756C385.756 34.104 385.57 34.476 385.306 34.872C385.042 35.256 384.67 35.7 384.19 36.204L380.086 40.524L386.278 40.506V42H377.89Z" fill="white"/>
<path d="M382 77.3333C380.527 77.3333 379.333 78.5272 379.333 80C379.333 81.4728 380.527 82.6667 382 82.6667C383.473 82.6667 384.667 81.4728 384.667 80C384.667 78.5272 383.473 77.3333 382 77.3333ZM381.5 52L381.5 80L382.5 80L382.5 52L381.5 52Z" fill="#C806CC"/>
<path d="M427 24C427 21.7909 428.791 20 431 20H461C463.209 20 465 21.7909 465 24V48C465 50.2091 463.209 52 461 52H431C428.791 52 427 50.2091 427 48V24Z" fill="#C806CC"/>
<path d="M445.859 42.198C444.959 42.198 444.113 42.042 443.321 41.73C442.541 41.406 441.863 40.944 441.287 40.344L442.457 39.228C442.961 39.756 443.471 40.134 443.987 40.362C444.515 40.578 445.133 40.686 445.841 40.686C446.693 40.686 447.383 40.476 447.911 40.056C448.451 39.636 448.721 39.096 448.721 38.436C448.721 37.812 448.493 37.308 448.037 36.924C447.593 36.54 447.017 36.348 446.309 36.348H444.779V34.89H446.183C446.819 34.89 447.329 34.704 447.713 34.332C448.097 33.96 448.289 33.474 448.289 32.874C448.289 32.466 448.181 32.106 447.965 31.794C447.749 31.47 447.449 31.218 447.065 31.038C446.693 30.846 446.267 30.75 445.787 30.75C445.151 30.75 444.587 30.864 444.095 31.092C443.615 31.308 443.117 31.692 442.601 32.244L441.431 31.128C442.007 30.504 442.673 30.03 443.429 29.706C444.185 29.37 444.983 29.202 445.823 29.202C446.639 29.202 447.359 29.352 447.983 29.652C448.619 29.952 449.117 30.366 449.477 30.894C449.849 31.422 450.035 32.028 450.035 32.712C450.035 33.384 449.813 33.978 449.369 34.494C448.937 35.01 448.367 35.37 447.659 35.574C448.511 35.754 449.189 36.114 449.693 36.654C450.197 37.182 450.449 37.806 450.449 38.526C450.449 39.234 450.251 39.864 449.855 40.416C449.471 40.968 448.931 41.406 448.235 41.73C447.539 42.042 446.747 42.198 445.859 42.198Z" fill="white"/>
<path d="M446 77.3333C444.527 77.3333 443.333 78.5272 443.333 80C443.333 81.4728 444.527 82.6667 446 82.6667C447.473 82.6667 448.667 81.4728 448.667 80C448.667 78.5272 447.473 77.3333 446 77.3333ZM445.5 52L445.5 80L446.5 80L446.5 52L445.5 52Z" fill="#C806CC"/>
</svg>
